<?xml version="1.0" encoding="UTF-8" standalone="no"?>
<svg
   xmlns:dc="http://purl.org/dc/elements/1.1/"
   xmlns:cc="http://creativecommons.org/ns#"
   xmlns:rdf="http://www.w3.org/1999/02/22-rdf-syntax-ns#"
   xmlns:svg="http://www.w3.org/2000/svg"
   xmlns="http://www.w3.org/2000/svg"
   xmlns:sodipodi="http://sodipodi.sourceforge.net/DTD/sodipodi-0.dtd"
   xmlns:inkscape="http://www.inkscape.org/namespaces/inkscape"
   inkscape:version="1.0 (4035a4f, 2020-05-01)"
   sodipodi:docname="favicon.svg"
   id="svg58"
   version="1.1"
   viewBox="0 0 12 16"
   height="16"
   width="12">
  <metadata
     id="metadata64">
    <rdf:RDF>
      <cc:Work
         rdf:about="">
        <dc:format>image/svg+xml</dc:format>
        <dc:type
           rdf:resource="http://purl.org/dc/dcmitype/StillImage" />
        <dc:title></dc:title>
      </cc:Work>
    </rdf:RDF>
  </metadata>
  <defs
     id="defs62" />
  <sodipodi:namedview
     inkscape:current-layer="svg58"
     inkscape:window-maximized="0"
     inkscape:window-y="90"
     inkscape:window-x="178"
     inkscape:cy="8.4387569"
     inkscape:cx="6"
     inkscape:zoom="34.1875"
     inkscape:pagecheckerboard="false"
     showgrid="false"
     id="namedview60"
     inkscape:window-height="744"
     inkscape:window-width="1114"
     inkscape:pageshadow="2"
     inkscape:pageopacity="0"
     guidetolerance="10"
     gridtolerance="10"
     objecttolerance="10"
     borderopacity="1"
     bordercolor="#666666"
     pagecolor="#000000" />
  <path
     style="fill:#ffffff"
     id="path56"
     d="M10 9H8v7H6V9H4l2.25-3H4l3-4 3 4H7.75L10 9zm1-9H1C.45 0 0 .45 0 1v12c0 .55.45 1 1 1h4v-1H1v-2h4v-1H2V1h9v9H9v1h2v2H9v1h2c.55 0 1-.45 1-1V1c0-.55-.45-1-1-1z"
     fill-rule="evenodd" />
</svg>
