<?xml version="1.0" standalone="no"?>
<!DOCTYPE svg PUBLIC "-//W3C//DTD SVG 20010904//EN"
 "http://www.w3.org/TR/2001/REC-SVG-20010904/DTD/svg10.dtd">
<svg version="1.0" xmlns="http://www.w3.org/2000/svg"
 width="1024.000000pt" height="1024.000000pt" viewBox="0 0 1024.000000 1024.000000"
 preserveAspectRatio="xMidYMid meet">
<metadata>
Created by potrace 1.11, written by Peter Selinger 2001-2013
</metadata>
<g transform="translate(0.000000,1024.000000) scale(0.100000,-0.100000)"
fill="#000000" stroke="none">
<path d="M1828 10234 c-4 -3 -20 -6 -37 -8 -17 -1 -34 -5 -37 -9 -4 -4 -15 -7
-25 -7 -40 0 -178 -81 -240 -142 -71 -69 -109 -113 -109 -127 0 -5 -7 -14 -15
-21 -9 -7 -13 -15 -10 -18 3 -3 1 -10 -4 -16 -11 -13 -47 -102 -58 -143 -4
-16 -9 -1796 -10 -3958 -3 -4327 -8 -3989 60 -4136 42 -89 53 -104 139 -190
66 -65 196 -142 259 -154 13 -3 35 -8 49 -11 14 -3 49 -7 78 -8 29 -2 55 -5
58 -9 3 -3 19 -1 35 3 17 5 31 5 35 -1 3 -6 12 -6 22 0 9 5 26 5 37 1 12 -5
28 -4 35 0 8 5 22 4 31 -1 11 -6 20 -5 24 1 3 5 15 6 29 0 12 -4 29 -4 36 0 8
5 22 4 31 -1 11 -6 20 -5 24 1 3 5 15 6 29 0 12 -4 29 -4 36 0 8 5 22 4 31 -1
11 -6 20 -5 24 1 3 5 15 6 29 0 12 -4 29 -4 36 0 8 5 22 4 31 -1 11 -6 20 -5
24 1 3 5 15 6 29 0 12 -4 29 -4 36 0 8 5 22 4 31 -1 11 -6 20 -5 24 1 3 5 15
6 29 0 12 -4 29 -4 36 0 8 5 22 4 31 -1 11 -6 20 -5 24 1 3 5 15 6 29 0 12 -4
29 -4 36 0 8 5 22 4 31 -1 11 -6 20 -5 24 1 3 5 15 6 29 0 12 -4 29 -4 36 0 8
5 22 4 31 -1 11 -6 20 -5 24 1 3 5 15 6 29 0 12 -4 29 -4 36 0 8 5 22 4 31 -1
11 -6 20 -5 24 1 3 5 15 6 29 0 12 -4 29 -4 36 0 8 5 22 4 31 -1 11 -6 20 -5
24 1 3 5 15 6 29 0 12 -4 29 -4 36 0 8 5 22 4 31 -1 11 -6 20 -5 24 1 3 5 15
6 29 0 12 -4 29 -4 36 0 8 5 22 4 31 -1 11 -6 20 -5 24 1 3 5 15 6 29 0 12 -4
29 -4 36 0 8 5 22 4 31 -1 11 -6 20 -5 24 1 3 5 15 6 29 0 12 -4 29 -4 36 0 8
5 22 4 31 -1 11 -6 20 -5 24 1 3 6 15 6 30 0 15 -6 27 -6 30 0 3 5 16 6 28 2
24 -9 56 -8 81 1 8 3 18 2 21 -3 3 -5 15 -6 29 0 12 4 29 5 36 0 7 -4 26 -4
41 0 16 5 31 5 34 0 3 -5 16 -5 30 0 15 6 27 6 30 0 3 -6 15 -6 30 0 15 6 27
6 30 0 3 -6 15 -6 30 0 15 6 27 6 30 0 3 -5 15 -6 29 0 12 4 29 5 36 0 7 -4
26 -4 41 0 16 5 31 5 34 0 3 -5 16 -5 30 0 15 6 27 6 30 0 3 -5 15 -6 28 -1
22 8 32 11 42 11 3 0 1 8 -4 18 -5 10 -6 24 -1 32 5 8 5 21 0 30 -5 9 -5 22 0
30 4 7 4 24 0 36 -6 14 -5 26 0 29 6 3 6 15 0 30 -6 15 -6 27 0 30 6 3 6 15 0
30 -6 15 -6 27 0 30 6 3 6 15 0 30 -6 15 -6 27 0 30 6 3 6 15 0 30 -6 15 -6
27 0 30 5 3 6 15 1 28 -5 12 -5 34 0 49 4 16 4 28 -1 28 -5 0 -5 13 0 30 5 17
5 30 0 30 -4 0 -6 8 -3 19 6 25 -7 32 -59 31 -64 -1 -74 -1 -184 0 -56 1 -105
0 -110 -1 -5 -1 -13 -1 -19 0 -5 1 -129 2 -275 1 -146 0 -271 -1 -277 -1 -63
1 -306 0 -315 0 -13 0 -207 0 -243 0 -11 0 -121 0 -245 0 -124 0 -232 0 -240
0 -8 0 -144 1 -303 1 -158 1 -286 4 -283 8 2 4 0 16 -4 27 -4 11 -4 30 1 42 5
13 4 25 -1 28 -6 3 -6 15 0 30 6 15 6 27 0 30 -6 3 -6 15 0 30 6 15 6 27 0 30
-6 3 -6 15 0 30 6 15 6 27 0 30 -6 3 -6 15 0 30 6 15 6 27 0 30 -6 3 -6 15 0
30 6 15 6 27 0 30 -6 3 -6 15 0 30 6 15 6 27 0 30 -6 3 -6 15 0 30 6 15 6 27
0 30 -6 3 -6 15 0 30 5 13 6 26 2 29 -5 3 -5 30 -2 61 3 31 3 58 -2 61 -4 3
-3 16 2 29 6 15 6 27 0 30 -6 3 -6 15 0 30 6 15 6 27 0 30 -6 3 -6 15 0 30 6
15 6 27 0 30 -6 3 -6 15 0 30 6 15 6 27 0 30 -6 3 -6 15 0 30 6 15 6 27 0 30
-6 3 -6 15 0 30 6 15 6 27 0 30 -6 3 -6 15 0 30 6 15 6 27 0 30 -6 3 -6 15 0
30 6 15 6 27 0 30 -6 4 -7 13 -1 24 6 10 6 23 1 31 -5 8 -6 18 -3 23 9 15 47
25 64 17 8 -5 21 -5 29 0 8 5 21 5 31 -1 11 -5 20 -5 23 0 4 5 18 6 34 2 15
-4 42 -4 60 0 17 4 32 3 32 -2 0 -5 11 -4 25 1 15 6 26 6 30 -1 4 -6 13 -6 23
0 9 5 23 6 32 1 9 -5 22 -5 30 0 8 5 21 5 31 -1 11 -5 20 -5 23 0 4 5 18 6 34
2 15 -4 42 -4 60 0 17 4 32 3 32 -2 0 -5 11 -4 25 1 15 6 26 6 30 0 4 -6 13
-7 24 -1 10 6 23 6 31 1 8 -5 21 -5 30 0 9 5 23 4 32 -1 10 -6 19 -6 22 0 4 5
18 6 34 2 15 -4 42 -4 60 0 17 4 32 3 32 -2 0 -5 11 -4 25 1 15 6 26 6 30 0 4
-6 13 -7 24 -1 10 6 23 6 31 1 8 -5 21 -5 30 0 9 5 23 4 32 -1 10 -6 19 -6 22
0 4 5 18 6 34 2 15 -4 42 -4 60 0 17 4 32 3 32 -2 0 -5 11 -4 25 1 16 6 34 6
50 0 15 -6 27 -6 30 0 3 6 15 6 30 0 14 -5 25 -6 25 -2 0 4 20 7 45 7 25 0 45
-3 45 -7 0 -4 11 -3 25 2 15 6 27 6 30 0 3 -6 15 -6 30 0 15 6 27 6 30 0 4 -6
13 -7 24 -1 9 5 23 6 30 1 8 -4 27 -4 42 0 17 5 29 5 29 0 0 -6 10 -6 25 0 15
6 27 6 30 0 3 -6 15 -6 30 0 15 6 27 6 30 0 4 -6 13 -7 24 -1 9 5 23 6 30 1 8
-4 27 -4 42 0 17 5 29 5 29 0 0 -6 10 -6 25 0 15 6 27 6 30 0 3 -6 15 -6 30 0
15 6 27 6 30 0 4 -6 13 -7 24 -1 9 5 23 6 30 1 8 -4 27 -4 42 0 17 5 29 5 29
0 0 -6 10 -6 25 0 15 6 27 6 30 0 3 -6 15 -6 30 0 15 6 27 6 30 0 4 -7 13 -7
24 0 10 5 21 6 25 3 8 -8 112 -7 126 2 5 3 10 2 10 -3 0 -6 10 -8 23 -5 46 10
48 12 38 31 -5 10 -6 24 -1 32 4 7 4 24 0 36 -6 14 -5 26 0 29 6 3 6 15 0 30
-5 14 -5 27 0 30 5 3 5 18 0 35 -5 17 -5 30 0 30 5 0 5 13 0 30 -5 17 -6 30
-2 30 8 0 6 155 -1 175 -3 6 -1 18 3 25 5 8 4 22 -1 31 -6 11 -5 20 1 24 5 3
6 15 1 28 -4 12 -6 28 -3 35 3 9 -3 13 -19 12 -13 -1 -27 -1 -31 0 -19 4 -99
2 -104 -3 -3 -3 -17 -2 -32 2 -15 4 -44 4 -64 1 -21 -4 -40 -5 -42 -2 -7 7
-95 6 -102 -1 -3 -3 -17 -2 -32 2 -15 4 -44 4 -64 1 -21 -4 -40 -5 -42 -2 -7
7 -95 6 -102 -1 -3 -3 -17 -2 -32 2 -15 4 -44 4 -64 1 -21 -4 -38 -5 -38 -1 0
7 -99 6 -106 -2 -3 -2 -19 -2 -37 2 -18 4 -47 4 -64 0 -18 -3 -33 -4 -33 0 0
7 -99 6 -106 -2 -3 -2 -19 -2 -37 2 -18 4 -47 4 -64 0 -18 -3 -33 -4 -33 0 0
7 -99 6 -106 -2 -3 -2 -19 -2 -37 2 -18 4 -47 4 -64 0 -18 -3 -33 -4 -33 0 0
7 -99 6 -106 -2 -3 -2 -19 -2 -37 2 -18 4 -47 4 -64 0 -18 -3 -33 -4 -33 0 0
3 -42 5 -94 5 l-94 -2 -4 29 c-3 16 -1 29 2 29 8 0 4 56 -5 70 -3 5 -1 11 4
15 7 3 7 15 1 30 -6 15 -6 27 0 30 6 3 6 15 0 30 -6 15 -6 27 0 30 6 3 6 15 0
30 -6 15 -6 27 0 30 6 3 6 15 0 30 -6 15 -6 27 0 30 6 3 6 15 0 30 -6 15 -6
27 0 30 6 3 6 15 0 30 -6 15 -6 27 0 30 6 3 6 15 0 30 -6 15 -6 27 0 30 6 3 6
15 0 30 -6 15 -6 27 0 30 6 3 6 15 0 30 -6 15 -6 27 0 30 6 3 6 15 0 30 -6 15
-6 27 0 30 6 3 6 15 0 30 -6 15 -6 27 0 30 6 3 6 15 0 30 -6 15 -6 27 0 30 6
3 6 15 0 30 -6 15 -6 27 0 30 6 3 6 15 0 30 -6 15 -6 27 0 30 6 3 6 15 0 30
-6 15 -6 27 0 30 6 3 6 15 0 30 -6 15 -6 27 0 30 6 3 6 15 0 30 -6 15 -6 27 0
30 6 3 6 15 0 30 -6 15 -6 27 0 30 6 3 6 15 0 30 -6 15 -6 27 0 30 6 3 6 15 0
30 -6 15 -6 27 0 30 6 3 6 15 0 30 -6 15 -6 27 0 30 6 3 6 15 0 30 -6 15 -6
27 0 30 6 3 6 15 0 30 -6 15 -6 27 0 30 6 3 6 15 0 30 -6 15 -6 27 0 30 6 3 6
15 0 30 -6 15 -6 27 0 30 6 3 6 15 0 30 -6 15 -6 27 0 30 6 3 6 15 0 30 -6 15
-6 27 0 30 6 3 6 15 0 30 -6 15 -6 27 0 30 6 3 6 15 0 30 -6 15 -6 27 0 30 6
3 6 15 0 30 -6 15 -6 27 0 30 6 3 6 15 0 30 -6 15 -6 27 0 30 6 3 6 15 0 30
-6 15 -6 27 0 30 6 3 6 15 0 30 -6 15 -6 27 0 30 6 3 6 15 0 30 -6 15 -6 27 0
30 6 3 6 15 0 30 -6 15 -6 27 0 30 6 3 6 15 0 30 -6 15 -6 27 0 30 6 3 6 15 0
30 -6 15 -6 27 0 30 6 3 6 15 0 30 -6 15 -6 27 0 30 6 3 6 15 0 30 -6 15 -6
27 0 30 6 3 6 15 0 30 -6 15 -6 27 0 30 6 3 6 15 0 30 -6 15 -6 27 0 30 6 3 6
15 0 30 -6 15 -6 27 0 30 6 3 6 15 0 30 -6 15 -6 27 0 30 6 3 6 15 0 30 -6 15
-6 27 0 30 6 3 6 15 0 30 -6 15 -6 27 0 30 6 3 6 15 0 30 -6 15 -6 27 0 30 6
3 6 15 0 30 -6 15 -6 27 0 30 6 3 6 15 0 30 -6 15 -6 27 0 30 6 3 6 15 0 30
-6 15 -6 27 0 30 6 3 6 15 0 30 -6 15 -6 27 0 30 6 3 6 15 0 30 -6 15 -6 27 0
30 6 3 6 15 0 30 -6 15 -6 27 0 30 6 3 6 15 0 30 -6 15 -6 27 0 30 6 3 6 15 0
30 -6 15 -6 27 0 30 6 3 6 15 0 30 -6 15 -6 27 0 30 6 3 6 15 0 30 -6 15 -6
27 0 30 6 3 6 15 0 30 -6 15 -6 27 0 30 6 3 6 15 0 30 -6 15 -6 27 0 30 5 3 6
15 1 28 -5 12 -5 34 0 49 4 16 4 28 -1 28 -6 0 -6 10 0 25 5 13 6 26 2 29 -9
5 -6 81 3 95 3 5 1 12 -4 15 -6 4 -6 18 -1 36 5 17 5 30 0 30 -4 0 -4 16 0 35
4 19 4 37 -1 40 -4 3 -4 17 1 30 6 15 6 27 0 30 -6 3 -6 15 0 30 6 15 6 27 0
30 -6 3 -6 15 0 30 5 14 5 27 0 30 -5 3 -5 18 0 35 5 17 5 30 0 30 -4 0 -4 16
0 35 4 19 4 37 -1 40 -4 3 -4 17 1 30 6 15 6 27 0 30 -6 3 -6 15 0 30 6 15 6
27 0 30 -6 3 -6 15 0 30 5 14 5 27 0 30 -5 3 -5 18 0 35 5 17 5 30 0 30 -4 0
-4 16 0 35 4 19 4 37 -1 40 -4 3 -4 17 1 30 6 15 6 27 0 30 -6 3 -6 15 0 30 6
15 6 27 0 30 -6 3 -6 15 0 30 5 14 5 27 0 30 -5 3 -5 18 0 35 5 17 5 30 0 30
-4 0 -4 16 0 35 4 19 4 37 -1 40 -4 3 -4 17 1 30 6 15 6 27 0 30 -6 3 -6 15 0
30 6 15 6 27 0 30 -6 3 -6 15 0 30 5 14 5 27 0 30 -5 3 -5 18 0 35 5 17 5 30
0 30 -4 0 -4 16 0 35 4 19 4 37 -1 40 -4 3 -4 17 1 30 6 15 6 27 0 30 -6 3 -6
15 0 30 6 15 6 27 0 30 -6 3 -6 15 0 30 5 14 5 27 0 30 -5 3 -5 18 0 35 5 17
5 30 0 30 -4 0 -4 16 0 35 4 19 4 37 -1 40 -4 3 -4 17 1 30 6 15 6 27 0 30 -5
3 -6 15 -1 28 8 21 11 32 11 41 0 3 14 1 30 -4 17 -5 30 -5 30 0 0 4 15 5 33
1 17 -4 47 -4 65 0 17 3 32 3 32 -2 0 -4 12 -4 28 0 15 5 37 5 49 0 13 -5 25
-4 28 1 3 6 15 6 30 0 15 -6 27 -6 30 0 3 6 15 6 30 0 15 -6 27 -6 30 0 3 5
15 6 28 1 12 -5 34 -5 49 0 16 4 28 4 28 -1 0 -6 10 -6 24 0 13 5 26 6 30 3 8
-8 96 -9 96 -2 0 4 16 3 35 -1 19 -4 35 -5 35 -1 0 5 19 5 43 1 23 -3 57 -3
75 1 17 3 32 3 32 -2 0 -5 10 -5 22 0 13 4 35 5 50 0 16 -4 28 -4 28 1 0 4 16
4 35 0 19 -4 35 -5 35 -1 0 5 19 5 43 1 23 -3 57 -3 75 1 18 4 32 2 32 -3 0
-5 5 -6 10 -3 14 9 108 10 116 2 3 -3 17 -2 30 3 14 6 26 6 29 0 3 -6 15 -6
30 0 15 6 27 6 30 0 3 -6 15 -6 30 0 15 6 27 6 30 0 3 -6 15 -6 30 0 15 6 27
6 30 0 3 -6 15 -6 30 0 15 6 27 6 30 0 3 -6 15 -6 30 0 15 6 27 6 30 0 3 -6
15 -6 30 0 15 6 27 6 30 0 3 -6 15 -6 30 0 15 6 27 6 30 0 3 -6 15 -6 30 0 15
6 27 6 30 0 3 -6 15 -6 30 0 15 6 27 6 30 0 3 -6 15 -6 29 0 13 5 26 6 29 3 8
-7 426 -7 434 0 3 4 14 2 24 -3 12 -7 20 -7 24 0 4 6 11 8 16 5 13 -9 99 -11
99 -4 0 4 16 3 35 -1 19 -4 35 -5 35 -1 0 5 19 5 43 1 23 -3 57 -3 75 1 17 3
32 3 32 -2 0 -5 10 -5 22 0 13 4 35 5 50 0 16 -4 28 -4 28 1 0 4 16 4 35 0 19
-4 35 -5 35 -1 0 5 19 5 43 1 23 -3 57 -3 75 1 18 4 32 2 32 -3 0 -5 5 -6 10
-3 13 8 103 10 116 3 5 -3 18 -2 29 2 11 4 30 4 42 -1 13 -5 25 -4 28 1 3 6
15 6 30 0 15 -6 27 -6 30 0 3 6 15 6 30 0 15 -6 27 -6 30 0 3 6 15 6 30 0 15
-6 27 -6 30 0 3 6 15 6 30 0 15 -6 27 -6 30 0 3 6 15 6 30 0 15 -6 27 -6 30 0
3 6 15 6 30 0 15 -6 27 -6 30 0 3 6 15 6 30 0 15 -6 27 -6 30 0 3 6 15 6 30 0
15 -6 27 -6 30 0 3 6 15 6 30 0 15 -6 27 -6 30 0 3 6 15 6 30 0 15 -6 27 -6
30 0 3 6 15 6 30 0 15 -6 27 -6 30 0 3 6 15 6 30 0 15 -6 27 -6 30 0 3 6 15 6
30 0 15 -6 27 -6 30 0 3 6 15 6 30 0 15 -6 27 -6 30 0 3 6 15 6 30 0 15 -6 27
-6 30 0 3 5 15 6 28 1 12 -5 34 -5 49 0 16 4 28 4 28 -1 0 -6 10 -6 24 0 13 5
26 6 30 3 8 -8 96 -9 96 -2 0 4 16 3 35 -1 19 -4 35 -5 35 -1 0 5 19 5 43 1
23 -3 57 -3 75 1 17 3 32 3 32 -2 0 -5 10 -5 22 0 13 4 35 5 50 0 16 -4 28 -4
28 1 0 4 16 4 35 0 19 -4 35 -5 35 -1 0 5 19 5 43 1 23 -3 57 -3 75 1 18 4 32
2 32 -3 0 -5 5 -6 10 -3 14 9 108 10 116 2 3 -3 17 -2 30 3 14 6 26 6 29 0 3
-6 15 -6 30 0 15 6 27 6 30 0 3 -6 15 -6 30 0 15 6 27 6 30 0 3 -6 15 -6 30 0
15 6 27 6 30 0 3 -6 15 -6 30 0 15 6 27 6 30 0 3 -6 15 -6 30 0 15 6 27 6 30
0 3 -6 15 -6 30 0 15 6 27 6 30 0 3 -6 15 -6 30 0 15 6 27 6 30 0 3 -6 15 -6
29 0 13 5 27 6 31 2 4 -4 12 -7 18 -7 8 0 12 -29 13 -92 1 -50 4 -98 7 -107 3
-8 2 -18 -3 -21 -6 -3 -6 -15 0 -30 6 -15 6 -27 0 -30 -6 -3 -6 -15 0 -30 6
-15 6 -27 0 -30 -6 -3 -6 -15 0 -30 6 -15 6 -27 0 -30 -6 -3 -6 -15 0 -30 6
-15 6 -27 0 -30 -6 -3 -6 -15 0 -30 6 -15 6 -27 0 -30 -6 -3 -6 -15 0 -30 6
-15 6 -27 0 -30 -6 -3 -6 -15 0 -30 6 -15 6 -27 0 -30 -6 -3 -6 -15 0 -30 6
-15 6 -27 0 -30 -6 -3 -6 -15 0 -30 6 -15 6 -27 0 -30 -6 -3 -6 -15 0 -30 6
-15 6 -27 0 -30 -6 -3 -6 -15 0 -30 6 -15 6 -27 0 -30 -6 -3 -6 -15 0 -30 6
-15 6 -27 0 -30 -6 -3 -6 -15 0 -30 6 -15 6 -27 0 -30 -6 -3 -6 -15 0 -30 6
-15 6 -27 0 -30 -5 -3 -6 -15 -1 -28 5 -12 5 -34 0 -49 -4 -16 -4 -28 1 -28 6
0 6 -10 0 -25 -5 -13 -6 -26 -2 -29 9 -5 6 -81 -3 -95 -3 -5 -1 -12 4 -15 6
-4 6 -18 1 -36 -5 -17 -5 -30 0 -30 4 0 4 -16 0 -35 -4 -19 -4 -37 1 -40 4 -3
4 -17 -1 -30 -6 -15 -6 -27 0 -30 6 -3 6 -15 0 -30 -6 -15 -6 -27 0 -30 6 -3
6 -15 0 -30 -5 -14 -5 -27 0 -30 5 -3 5 -18 0 -35 -5 -17 -5 -30 0 -30 4 0 4
-16 0 -35 -4 -19 -4 -37 1 -40 4 -3 4 -17 -1 -30 -6 -15 -6 -27 0 -30 6 -3 6
-15 0 -30 -6 -15 -6 -27 0 -30 6 -3 6 -15 0 -30 -5 -14 -5 -27 0 -30 5 -3 5
-18 0 -35 -5 -17 -5 -30 0 -30 4 0 4 -16 0 -35 -4 -19 -4 -37 1 -40 4 -3 4
-17 -1 -30 -6 -15 -6 -27 0 -30 6 -3 6 -15 0 -30 -6 -15 -6 -27 0 -30 6 -3 6
-15 0 -30 -5 -14 -5 -27 0 -30 5 -3 5 -18 0 -35 -5 -17 -5 -30 0 -30 4 0 4
-16 0 -35 -4 -19 -4 -37 1 -40 4 -3 4 -17 -1 -30 -6 -15 -6 -27 1 -30 5 -4 7
-11 3 -16 -8 -13 -9 -107 -1 -115 3 -3 2 -17 -3 -30 -6 -14 -6 -26 0 -29 5 -3
6 -15 1 -28 -5 -12 -5 -32 0 -44 5 -13 4 -25 -1 -28 -6 -3 -6 -15 0 -30 6 -15
6 -27 0 -30 -6 -3 -6 -15 0 -30 6 -15 6 -27 0 -30 -6 -3 -6 -15 0 -30 6 -15 6
-27 0 -30 -6 -3 -6 -15 0 -30 6 -15 6 -27 0 -30 -6 -3 -6 -15 0 -30 6 -15 6
-27 0 -30 -6 -3 -6 -15 0 -30 6 -15 6 -27 0 -30 -6 -3 -6 -15 0 -30 6 -15 6
-27 0 -30 -6 -3 -6 -15 0 -30 6 -15 6 -27 0 -30 -6 -3 -6 -15 0 -30 6 -15 6
-27 0 -30 -6 -3 -6 -15 0 -30 6 -15 6 -27 0 -30 -6 -3 -6 -15 0 -30 6 -15 6
-27 0 -30 -6 -3 -6 -15 0 -30 6 -15 6 -27 0 -30 -6 -3 -6 -15 0 -30 6 -15 6
-27 0 -30 -6 -3 -6 -15 0 -30 6 -15 6 -27 0 -30 -5 -3 -6 -15 -1 -28 5 -12 5
-34 0 -49 -4 -16 -4 -28 1 -28 6 0 6 -10 0 -25 -5 -13 -6 -26 -2 -29 9 -5 6
-81 -3 -95 -3 -5 -1 -12 4 -15 6 -4 6 -18 1 -36 -5 -17 -5 -30 0 -30 4 0 4
-16 0 -35 -4 -19 -4 -37 1 -40 4 -3 4 -17 -1 -30 -6 -15 -6 -27 0 -30 6 -3 6
-15 0 -30 -6 -15 -6 -27 0 -30 6 -3 6 -15 0 -30 -5 -14 -5 -27 0 -30 5 -3 5
-18 0 -35 -5 -17 -5 -30 0 -30 4 0 4 -16 0 -35 -4 -19 -4 -37 1 -40 4 -3 4
-17 -1 -30 -6 -15 -6 -27 0 -30 6 -3 6 -15 0 -30 -6 -15 -6 -27 0 -30 6 -3 6
-15 0 -30 -5 -14 -5 -27 0 -30 5 -3 5 -18 0 -35 -5 -17 -5 -30 0 -30 4 0 4
-16 0 -35 -4 -19 -4 -37 1 -40 4 -3 4 -17 -1 -30 -6 -15 -6 -27 0 -30 6 -3 6
-15 0 -30 -6 -15 -6 -27 0 -30 6 -3 6 -15 0 -30 -5 -14 -5 -27 0 -30 5 -3 5
-18 0 -35 -5 -17 -5 -30 0 -30 4 0 4 -16 0 -35 -4 -19 -4 -37 1 -40 4 -3 4
-17 -1 -30 -6 -15 -6 -27 1 -30 5 -4 7 -11 3 -16 -8 -13 -9 -107 -1 -115 3 -3
2 -17 -3 -30 -6 -14 -6 -26 0 -29 5 -3 6 -15 1 -28 -5 -12 -5 -32 0 -44 5 -13
4 -25 -1 -28 -6 -3 -6 -15 0 -30 6 -15 6 -27 0 -30 -6 -3 -6 -15 0 -30 6 -15
6 -27 0 -30 -6 -3 -6 -15 0 -30 6 -15 6 -27 0 -30 -6 -3 -6 -15 0 -30 6 -15 6
-27 0 -30 -6 -3 -6 -15 0 -30 6 -15 6 -27 0 -30 -6 -3 -6 -15 0 -30 6 -15 6
-27 0 -30 -6 -3 -6 -15 0 -29 9 -23 8 -24 -56 -25 -35 -1 -71 -2 -79 -2 -8 0
-44 0 -80 0 -36 0 -72 0 -80 0 -8 0 -44 0 -80 0 -36 0 -71 0 -77 0 -7 0 -42 0
-78 1 -36 0 -96 0 -133 -1 -38 0 -71 2 -73 4 -3 3 -21 1 -40 -3 -18 -4 -34 -5
-34 -1 0 3 -24 5 -52 3 -71 -4 -150 -2 -159 4 -4 2 -10 0 -14 -6 -4 -6 -11 -8
-16 -4 -5 3 -58 6 -117 6 -126 1 -111 25 -111 -187 0 -11 0 -58 0 -105 1 -47
0 -96 -1 -110 -4 -91 -4 -190 1 -190 3 0 4 -12 1 -27 -4 -23 -2 -25 17 -20 11
3 21 1 21 -4 0 -5 10 -5 23 0 12 5 32 5 44 0 13 -5 25 -4 28 1 3 6 15 6 30 0
15 -6 25 -6 25 0 0 5 12 5 29 0 15 -4 34 -4 42 0 7 5 21 4 30 -1 11 -6 20 -5
24 1 3 6 15 6 30 0 15 -6 27 -6 30 0 3 6 15 6 30 0 15 -6 25 -6 25 0 0 5 12 5
28 1 15 -5 37 -5 49 0 13 5 25 4 28 -1 4 -6 13 -7 24 -1 9 5 23 6 30 2 7 -5
30 -5 51 -1 21 4 44 4 51 0 6 -4 25 -4 40 0 17 5 29 5 29 0 0 -6 9 -6 23 -1
12 5 32 5 44 0 13 -5 25 -4 28 1 3 6 15 6 30 0 15 -6 25 -6 25 0 0 5 12 5 29
0 15 -4 34 -4 42 0 7 5 21 4 30 -1 11 -6 20 -5 24 1 3 6 15 6 30 0 15 -6 27
-6 30 0 3 6 15 6 30 0 15 -6 25 -6 25 0 0 5 12 5 29 0 15 -4 34 -4 42 0 7 5
20 5 28 1 9 -5 21 -6 28 -4 9 3 10 -4 3 -26 -5 -17 -5 -31 0 -31 5 0 5 -13 0
-30 -5 -16 -5 -30 0 -30 4 0 4 -16 0 -35 -4 -19 -4 -37 1 -40 4 -3 4 -17 -1
-30 -6 -15 -6 -27 0 -30 6 -3 6 -15 0 -30 -6 -15 -6 -27 0 -30 6 -3 6 -15 0
-30 -5 -14 -5 -27 0 -30 5 -3 5 -18 0 -35 -5 -17 -5 -30 0 -30 4 0 4 -16 0
-35 -4 -19 -4 -37 1 -40 4 -3 4 -17 -1 -30 -6 -15 -6 -27 0 -30 6 -3 6 -15 0
-30 -6 -15 -6 -27 0 -30 6 -3 6 -15 0 -30 -5 -14 -5 -27 0 -30 5 -3 5 -18 0
-35 -5 -17 -5 -30 0 -30 4 0 4 -16 0 -35 -4 -19 -4 -37 1 -40 4 -3 4 -17 -1
-30 -6 -15 -6 -27 0 -30 6 -3 6 -15 0 -30 -6 -15 -6 -27 0 -30 6 -3 6 -15 0
-30 -5 -14 -5 -27 0 -30 5 -3 5 -18 0 -35 -5 -17 -5 -30 0 -30 4 0 4 -16 0
-35 -4 -19 -4 -37 1 -40 4 -3 4 -17 -1 -30 -6 -15 -6 -27 0 -30 6 -3 6 -15 0
-29 -5 -13 -6 -27 -3 -30 4 -3 -18 -6 -48 -6 -30 0 -63 0 -74 -1 -11 0 -65 1
-121 1 -56 1 -105 0 -110 -1 -5 -1 -13 -1 -19 0 -12 2 -450 2 -462 0 -4 -1
-12 0 -18 1 -24 4 -257 0 -265 -5 -6 -4 -10 -3 -10 2 0 7 -44 8 -137 4 -6 -1
-12 -9 -12 -18 1 -10 0 -47 0 -83 0 -36 0 -74 0 -85 0 -47 0 -161 0 -175 0 -8
0 -51 0 -95 1 -110 1 -109 -1 -120 -6 -30 1 -66 13 -62 6 2 20 0 29 -4 10 -5
19 -5 22 0 3 5 21 5 41 1 19 -4 35 -4 35 1 0 4 6 6 14 3 21 -8 106 -10 106 -2
0 4 6 5 14 2 23 -9 106 -10 106 -1 0 5 5 5 10 2 14 -9 118 -10 126 -2 4 3 15
2 25 -3 11 -7 20 -7 24 0 3 5 15 6 28 2 24 -9 56 -8 81 1 8 3 18 2 21 -3 3 -5
15 -6 29 0 12 4 29 5 36 0 7 -4 26 -4 41 0 16 5 31 5 34 0 3 -5 16 -5 30 0 15
6 27 6 30 0 3 -6 15 -6 30 0 15 6 27 6 30 0 3 -6 15 -6 30 0 15 6 27 6 30 0 3
-5 15 -6 29 0 12 4 29 5 36 0 7 -4 26 -4 41 0 16 5 31 5 34 0 3 -5 16 -5 30 0
15 6 27 6 30 -1 4 -5 10 -7 15 -4 5 3 47 8 94 10 47 2 94 9 105 14 10 6 21 8
24 5 3 -3 13 -1 24 4 10 6 42 21 71 33 28 13 52 27 52 32 0 4 4 6 8 3 12 -7
55 27 133 106 48 48 79 92 108 150 78 158 71 -237 68 4143 -1 2162 -6 3944
-11 3960 -4 17 -9 37 -11 45 -2 8 -4 16 -5 18 -2 1 -3 6 -4 10 0 5 -19 44 -41
88 -57 112 -166 220 -278 274 -156 75 147 69 -3498 70 -1802 0 -3278 -3 -3281
-6z"/>
<path d="M5496 8608 c-142 -189 -266 -354 -276 -368 -10 -14 -107 -142 -214
-285 -107 -143 -250 -334 -318 -424 -68 -91 -129 -170 -135 -177 -7 -7 -13
-15 -13 -17 0 -3 -93 -129 -207 -280 -115 -152 -215 -286 -223 -298 -8 -12
-33 -45 -55 -73 -64 -81 -205 -273 -205 -279 0 -2 16 -7 35 -9 19 -2 35 -2 35
2 0 3 26 4 57 2 92 -4 154 -3 164 3 5 4 9 1 9 -5 0 -6 4 -9 8 -6 9 5 56 7 164
5 37 0 72 2 77 5 5 4 12 2 15 -3 3 -4 23 -5 43 -2 21 4 49 4 63 1 14 -3 44 -3
68 0 23 4 42 3 42 -2 0 -5 4 -7 8 -4 5 3 28 5 53 6 63 1 161 1 184 0 11 -1 26
-1 33 -1 6 0 32 0 57 0 25 0 52 0 60 1 47 1 165 2 185 1 8 -1 28 -1 43 -2 l28
0 -33 -42 c-18 -23 -36 -43 -40 -45 -5 -2 -8 -9 -8 -14 0 -6 -7 -18 -15 -27
-9 -9 -96 -124 -195 -256 -318 -426 -425 -568 -437 -581 -7 -7 -13 -15 -13
-19 0 -7 -103 -139 -112 -143 -5 -2 -8 -8 -8 -12 0 -5 -46 -70 -102 -144 -57
-74 -110 -144 -118 -156 -8 -13 -19 -28 -25 -34 -5 -6 -26 -33 -45 -59 -19
-27 -42 -57 -51 -66 -8 -10 -19 -24 -22 -32 -4 -8 -52 -72 -107 -144 -55 -71
-100 -133 -100 -136 0 -10 39 -18 44 -10 5 8 53 7 62 -1 3 -4 18 -3 32 1 15 5
36 5 47 1 11 -4 30 -4 41 1 12 4 25 5 28 2 8 -8 76 -9 76 -1 0 4 13 3 30 -2
17 -5 32 -5 35 0 3 5 16 6 28 1 12 -5 31 -5 42 -1 11 4 24 5 29 2 14 -8 76 -8
76 0 0 4 13 3 30 -2 17 -5 32 -5 35 0 3 5 16 5 28 1 12 -5 34 -5 49 0 16 4 28
5 28 1 0 -6 125 -7 140 -1 3 1 10 0 15 -1 25 -5 95 -3 101 2 3 4 16 3 28 -2
12 -4 29 -4 37 0 8 5 21 5 29 0 7 -4 24 -4 36 0 13 5 25 6 28 2 2 -4 30 -7 61
-6 l56 1 -2 -48 c-2 -27 -1 -51 2 -53 3 -3 2 -31 -1 -61 -3 -31 -3 -58 0 -60
3 -2 3 -29 0 -60 -3 -31 -3 -58 0 -60 3 -2 3 -29 0 -60 -3 -31 -3 -58 0 -60 3
-2 3 -29 0 -60 -3 -31 -3 -58 0 -60 3 -2 3 -29 0 -60 -3 -31 -3 -58 0 -60 3
-2 3 -29 0 -60 -3 -31 -3 -58 0 -60 3 -2 3 -29 0 -60 -3 -31 -3 -58 0 -60 3
-2 3 -29 0 -60 -3 -31 -3 -58 0 -60 3 -2 3 -29 0 -60 -3 -31 -3 -58 0 -60 3
-2 3 -29 0 -60 -3 -31 -3 -58 0 -60 3 -2 3 -29 0 -60 -3 -31 -3 -58 0 -60 3
-2 3 -29 0 -60 -3 -31 -3 -58 0 -60 3 -2 3 -29 0 -60 -3 -31 -3 -58 0 -60 3
-2 3 -29 0 -60 -3 -31 -3 -58 0 -60 3 -2 3 -29 0 -60 -3 -31 -3 -58 0 -60 3
-2 3 -29 0 -60 -3 -31 -3 -58 0 -60 3 -2 3 -29 0 -60 -3 -31 -3 -58 0 -60 3
-2 3 -29 0 -60 -3 -31 -3 -58 0 -60 3 -2 3 -29 0 -60 -3 -31 -3 -58 0 -60 3
-2 3 -29 0 -60 -3 -31 -3 -58 0 -60 3 -2 3 -29 0 -60 -3 -31 -3 -58 0 -60 3
-2 3 -29 0 -60 -3 -31 -3 -58 0 -60 3 -2 3 -29 0 -60 -3 -31 -3 -58 0 -60 3
-2 3 -29 0 -60 -3 -31 -3 -58 0 -60 3 -2 3 -29 0 -60 -3 -31 -3 -58 0 -60 3
-2 3 -29 0 -60 -3 -31 -3 -58 0 -60 3 -2 3 -29 0 -60 -3 -31 -3 -58 0 -60 3
-2 3 -29 0 -60 -3 -31 -3 -58 0 -60 3 -2 3 -29 0 -60 -3 -31 -3 -58 0 -60 3
-2 3 -29 0 -60 -3 -31 -3 -58 0 -60 3 -2 3 -29 0 -60 -3 -31 -3 -58 0 -60 3
-2 3 -29 0 -60 -3 -31 -3 -58 0 -60 3 -2 3 -29 0 -60 -3 -31 -2 -58 2 -61 5
-3 6 -10 3 -15 -3 -5 -6 -84 -5 -176 1 -93 1 -180 1 -196 l-1 -27 635 0 636 0
8 23 c5 12 5 26 1 31 -4 4 -4 21 0 37 5 16 5 29 0 29 -4 0 -4 16 0 35 4 19 4
37 -1 40 -4 3 -4 17 1 30 6 15 6 27 0 30 -6 3 -6 15 0 30 6 15 6 27 0 30 -6 3
-6 15 0 30 5 14 5 27 0 30 -5 3 -5 18 0 35 5 17 5 30 0 30 -4 0 -4 16 0 35 4
19 4 37 -1 40 -4 3 -4 17 1 30 6 15 6 27 0 30 -6 3 -6 15 0 30 6 15 6 27 0 30
-6 3 -6 15 0 30 5 14 5 27 0 30 -5 3 -5 18 0 35 5 17 5 30 0 30 -4 0 -4 16 0
35 4 19 4 37 -1 40 -4 3 -4 17 1 30 6 15 6 27 0 30 -6 3 -6 15 0 30 6 15 6 27
0 30 -6 3 -6 15 0 30 5 14 5 27 0 30 -5 3 -5 18 0 35 5 17 5 30 0 30 -4 0 -4
16 0 35 4 19 4 37 -1 40 -4 3 -4 17 1 30 6 15 6 27 -1 30 -5 4 -6 11 -3 17 9
14 9 102 0 116 -3 6 -2 13 3 17 7 3 7 15 1 30 -6 15 -6 27 0 30 6 3 6 15 0 30
-6 15 -6 27 0 30 6 3 6 15 0 30 -6 15 -6 27 0 30 6 3 6 15 0 30 -6 15 -6 27 0
30 6 3 6 15 0 30 -6 15 -6 27 0 30 6 3 6 15 0 30 -6 15 -6 27 0 30 6 3 6 15 0
30 -6 15 -6 27 0 30 6 3 6 15 0 30 -6 15 -6 27 0 30 6 3 6 15 0 30 -6 15 -6
27 0 30 6 3 6 15 0 30 -6 15 -6 27 0 30 6 3 6 15 0 30 -6 15 -6 27 0 30 6 3 6
15 0 30 -6 15 -6 27 0 30 6 3 6 15 0 30 -6 15 -6 27 0 30 6 3 6 15 0 30 -6 15
-6 27 0 30 6 3 6 15 0 30 -6 15 -6 27 0 30 6 3 6 15 0 30 -6 15 -6 27 0 30 6
3 6 15 0 30 -6 15 -6 27 0 30 6 3 6 15 0 30 -6 15 -6 27 0 30 6 3 6 15 0 30
-6 15 -6 27 0 30 6 3 6 15 0 30 -6 15 -6 27 0 30 6 3 6 15 0 30 -6 15 -6 27 0
30 6 3 6 15 0 30 -6 15 -6 27 0 30 6 3 6 15 0 30 -6 15 -6 27 0 30 6 3 6 15 0
30 -6 15 -6 27 0 30 6 3 6 15 0 30 -6 15 -6 27 0 30 6 3 6 15 0 30 -6 15 -6
27 0 30 6 3 6 15 0 30 -6 15 -6 27 0 30 6 3 6 15 0 30 -6 15 -6 27 0 30 6 3 6
15 0 30 -6 15 -6 27 0 30 6 3 6 15 0 30 -6 15 -6 27 0 30 6 3 6 15 0 30 -6 15
-6 27 0 30 6 3 6 15 0 30 -6 15 -6 27 0 30 6 3 6 15 0 30 -6 15 -6 27 0 30 6
3 6 15 0 30 -6 15 -6 27 0 30 6 3 6 15 0 30 -6 15 -6 27 0 30 6 3 6 15 0 30
-6 15 -6 27 0 30 6 3 6 15 0 30 -6 15 -6 27 0 30 6 3 6 15 0 30 -6 15 -6 27 0
30 6 3 6 15 0 30 -6 15 -6 27 0 30 6 3 6 15 0 30 -6 15 -6 27 0 30 5 3 6 16 2
28 -9 24 -8 56 1 81 3 8 2 18 -3 21 -5 3 -5 18 0 35 5 17 5 30 0 30 -4 0 -4
16 0 35 4 19 4 37 -1 40 -4 3 -4 17 1 30 6 15 6 27 0 30 -6 3 -6 15 0 30 6 15
6 27 0 30 -6 3 -6 15 0 30 5 14 5 27 0 30 -5 3 -5 18 0 35 5 17 5 30 0 30 -4
0 -4 16 0 35 4 19 4 37 -1 40 -4 3 -4 17 1 30 6 15 6 27 0 30 -6 3 -6 15 0 30
5 14 6 25 2 25 -4 0 -1 4 7 9 8 5 24 6 36 1 12 -5 28 -5 35 0 7 4 25 4 40 0
15 -4 33 -4 40 0 7 5 23 5 34 0 11 -4 33 -4 47 0 15 4 32 4 39 0 7 -5 23 -4
36 0 12 5 25 6 28 3 5 -5 184 -7 204 -3 4 2 12 1 17 0 20 -4 124 -2 132 3 5 3
15 2 22 -3 8 -4 26 -4 41 0 15 4 33 4 40 0 7 -4 25 -4 40 0 15 4 33 4 40 0 7
-4 25 -4 40 0 15 4 33 4 40 0 7 -4 25 -4 40 0 15 4 33 4 40 0 7 -4 25 -4 40 0
15 4 33 4 40 0 7 -4 25 -4 40 0 15 4 33 5 39 1 17 -11 71 -1 68 13 -1 6 -5 13
-8 16 -3 3 -134 176 -290 385 -156 209 -287 382 -291 383 -5 2 -8 10 -8 17 0
7 -4 15 -8 17 -5 2 -28 30 -53 63 -24 33 -47 62 -51 63 -5 2 -8 10 -8 17 0 7
-4 15 -8 17 -5 2 -82 102 -173 223 -90 121 -167 222 -171 223 -5 2 -8 10 -8
17 0 7 -4 15 -8 17 -16 6 -335 438 -328 445 3 3 23 5 43 4 21 -1 45 -2 53 -2
48 2 103 0 110 -4 5 -3 11 -1 14 3 3 5 22 6 43 3 21 -4 59 -4 85 -1 26 4 53 3
59 -1 6 -3 26 -3 45 1 18 4 35 5 38 2 4 -3 27 -4 54 -3 77 3 134 1 142 -4 5
-3 11 -1 14 3 3 5 22 6 43 3 21 -4 59 -4 85 -1 26 4 53 3 59 -1 6 -3 26 -3 45
1 18 4 35 5 38 2 4 -3 27 -4 54 -3 77 3 134 1 142 -4 5 -3 11 -1 14 4 3 4 23
5 43 2 21 -4 49 -4 63 -1 14 3 41 4 60 0 89 -14 89 -11 -38 158 -64 86 -120
159 -124 160 -5 2 -8 10 -8 17 0 7 -4 15 -8 17 -5 2 -28 30 -53 63 -24 33 -47
62 -51 63 -5 2 -8 10 -8 17 0 7 -4 15 -8 17 -5 2 -55 66 -113 143 -57 77 -107
142 -111 143 -5 2 -8 10 -8 17 0 7 -4 15 -8 17 -5 2 -82 102 -173 223 -90 121
-167 222 -171 223 -5 2 -8 10 -8 17 0 7 -4 15 -8 17 -5 2 -82 102 -173 223
-90 121 -167 222 -171 223 -5 2 -8 10 -8 17 0 7 -4 15 -8 17 -5 2 -136 173
-292 381 -155 207 -286 377 -290 377 -4 0 -123 -154 -264 -342z"/>
</g>
</svg>
