<?xml version="1.0" encoding="UTF-8" standalone="no"?>
<svg
   xmlns:dc="http://purl.org/dc/elements/1.1/"
   xmlns:cc="http://creativecommons.org/ns#"
   xmlns:rdf="http://www.w3.org/1999/02/22-rdf-syntax-ns#"
   xmlns:svg="http://www.w3.org/2000/svg"
   xmlns="http://www.w3.org/2000/svg"
   xmlns:sodipodi="http://sodipodi.sourceforge.net/DTD/sodipodi-0.dtd"
   xmlns:inkscape="http://www.inkscape.org/namespaces/inkscape"
   width="16"
   height="16"
   viewBox="0 0 16 16"
   version="1.1"
   id="svg58"
   sodipodi:docname="favicon.svg"
   inkscape:version="1.0 (4035a4f, 2020-05-01)">
  <metadata
     id="metadata64">
    <rdf:RDF>
      <cc:Work
         rdf:about="">
        <dc:format>image/svg+xml</dc:format>
        <dc:type
           rdf:resource="http://purl.org/dc/dcmitype/StillImage" />
        <dc:title></dc:title>
      </cc:Work>
    </rdf:RDF>
  </metadata>
  <defs
     id="defs62" />
  <sodipodi:namedview
     inkscape:document-rotation="0"
     pagecolor="#000000"
     bordercolor="#666666"
     borderopacity="1"
     objecttolerance="10"
     gridtolerance="10"
     guidetolerance="10"
     inkscape:pageopacity="0"
     inkscape:pageshadow="2"
     inkscape:window-width="1241"
     inkscape:window-height="755"
     id="namedview60"
     showgrid="false"
     inkscape:pagecheckerboard="false"
     inkscape:zoom="34.1875"
     inkscape:cx="6"
     inkscape:cy="8.4387569"
     inkscape:window-x="39"
     inkscape:window-y="90"
     inkscape:window-maximized="0"
     inkscape:current-layer="svg58" />
  <path
     fill-rule="evenodd"
     d="m 12,9 h -2 v 7 H 8 V 9 H 6 L 8.25,6 H 6 L 9,2 12,6 H 9.75 Z M 13,0 H 3 C 2.45,0 2,0.45 2,1 v 12 c 0,0.55 0.45,1 1,1 H 7 V 13 H 3 V 11 H 7 V 10 H 4 V 1 h 9 v 9 h -2 v 1 h 2 v 2 h -2 v 1 h 2 c 0.55,0 1,-0.45 1,-1 V 1 C 14,0.45 13.55,0 13,0 Z"
     id="path56"
     style="fill:#ffffff" />
</svg>
